<mxfile host="Electron" modified="2024-01-28T01:58:37.583Z" agent="Mozilla/5.0 (Windows NT 10.0; Win64; x64) AppleWebKit/537.36 (KHTML, like Gecko) draw.io/22.0.3 Chrome/114.0.5735.289 Electron/25.8.4 Safari/537.36" etag="SF5BlooX7AmhhjZ_Ptus" version="22.0.3" type="device">
  <diagram name="Pagina-1" id="0tIIIOdtdF8lJj4KxPNZ">
    <mxGraphModel dx="2933" dy="1330" grid="1" gridSize="10" guides="1" tooltips="1" connect="1" arrows="1" fold="1" page="1" pageScale="1" pageWidth="827" pageHeight="1169" math="0" shadow="0">
      <root>
        <mxCell id="0" />
        <mxCell id="1" parent="0" />
        <mxCell id="UKkEUNWyltZnGkTkc1AV-1" value="SPITAL" style="rounded=0;whiteSpace=wrap;html=1;" parent="1" vertex="1">
          <mxGeometry y="80" width="120" height="60" as="geometry" />
        </mxCell>
        <mxCell id="UKkEUNWyltZnGkTkc1AV-2" value="DOCTOR" style="rounded=0;whiteSpace=wrap;html=1;" parent="1" vertex="1">
          <mxGeometry x="470" y="110" width="120" height="60" as="geometry" />
        </mxCell>
        <mxCell id="UKkEUNWyltZnGkTkc1AV-3" value="PACIENȚI" style="rounded=0;whiteSpace=wrap;html=1;" parent="1" vertex="1">
          <mxGeometry x="520" y="290" width="120" height="60" as="geometry" />
        </mxCell>
        <mxCell id="UKkEUNWyltZnGkTkc1AV-4" value="CAMERĂ" style="rounded=0;whiteSpace=wrap;html=1;" parent="1" vertex="1">
          <mxGeometry x="280" y="220" width="120" height="60" as="geometry" />
        </mxCell>
        <mxCell id="UKkEUNWyltZnGkTkc1AV-6" value="INTERNARE" style="rounded=0;whiteSpace=wrap;html=1;" parent="1" vertex="1">
          <mxGeometry x="270" y="310" width="120" height="60" as="geometry" />
        </mxCell>
        <mxCell id="UKkEUNWyltZnGkTkc1AV-7" value="PROGRAMARE" style="rounded=0;whiteSpace=wrap;html=1;" parent="1" vertex="1">
          <mxGeometry x="700" y="110" width="120" height="60" as="geometry" />
        </mxCell>
        <mxCell id="ayAQpTSmtlKDpXY4TUyy-1" value="" style="edgeStyle=entityRelationEdgeStyle;fontSize=12;html=1;endArrow=ERoneToMany;rounded=0;entryX=1;entryY=0.5;entryDx=0;entryDy=0;exitX=0;exitY=0.5;exitDx=0;exitDy=0;" parent="1" source="UKkEUNWyltZnGkTkc1AV-7" target="UKkEUNWyltZnGkTkc1AV-2" edge="1">
          <mxGeometry width="100" height="100" relative="1" as="geometry">
            <mxPoint x="810" y="190" as="sourcePoint" />
            <mxPoint x="830" y="340" as="targetPoint" />
          </mxGeometry>
        </mxCell>
        <mxCell id="ayAQpTSmtlKDpXY4TUyy-2" value="" style="edgeStyle=entityRelationEdgeStyle;fontSize=12;html=1;endArrow=ERoneToMany;rounded=0;exitX=1;exitY=0.5;exitDx=0;exitDy=0;entryX=0;entryY=0.5;entryDx=0;entryDy=0;" parent="1" source="UKkEUNWyltZnGkTkc1AV-3" target="UKkEUNWyltZnGkTkc1AV-7" edge="1">
          <mxGeometry width="100" height="100" relative="1" as="geometry">
            <mxPoint x="920" y="230" as="sourcePoint" />
            <mxPoint x="870" y="140" as="targetPoint" />
          </mxGeometry>
        </mxCell>
        <mxCell id="ayAQpTSmtlKDpXY4TUyy-3" value="" style="edgeStyle=entityRelationEdgeStyle;fontSize=12;html=1;endArrow=ERoneToMany;rounded=0;exitX=1;exitY=0.5;exitDx=0;exitDy=0;entryX=0;entryY=0.5;entryDx=0;entryDy=0;" parent="1" source="UKkEUNWyltZnGkTkc1AV-6" target="UKkEUNWyltZnGkTkc1AV-3" edge="1">
          <mxGeometry width="100" height="100" relative="1" as="geometry">
            <mxPoint x="430" y="260" as="sourcePoint" />
            <mxPoint x="300" y="310" as="targetPoint" />
          </mxGeometry>
        </mxCell>
        <mxCell id="ayAQpTSmtlKDpXY4TUyy-4" value="" style="edgeStyle=entityRelationEdgeStyle;fontSize=12;html=1;endArrow=ERoneToMany;rounded=0;entryX=1;entryY=0.5;entryDx=0;entryDy=0;exitX=0;exitY=0.5;exitDx=0;exitDy=0;" parent="1" source="UKkEUNWyltZnGkTkc1AV-3" target="UKkEUNWyltZnGkTkc1AV-4" edge="1">
          <mxGeometry width="100" height="100" relative="1" as="geometry">
            <mxPoint x="530" y="320" as="sourcePoint" />
            <mxPoint x="590" y="380" as="targetPoint" />
          </mxGeometry>
        </mxCell>
        <mxCell id="kJ0Sv4Drti37b-tfnY8W-6" value="DEPARTAMENT" style="rounded=0;whiteSpace=wrap;html=1;" vertex="1" parent="1">
          <mxGeometry x="205" y="70" width="120" height="60" as="geometry" />
        </mxCell>
        <mxCell id="kJ0Sv4Drti37b-tfnY8W-11" value="" style="edgeStyle=entityRelationEdgeStyle;fontSize=12;html=1;endArrow=ERoneToMany;rounded=0;exitX=1;exitY=0.5;exitDx=0;exitDy=0;" edge="1" parent="1" source="UKkEUNWyltZnGkTkc1AV-1" target="kJ0Sv4Drti37b-tfnY8W-6">
          <mxGeometry width="100" height="100" relative="1" as="geometry">
            <mxPoint x="310" y="180" as="sourcePoint" />
            <mxPoint x="410" y="80" as="targetPoint" />
          </mxGeometry>
        </mxCell>
        <mxCell id="kJ0Sv4Drti37b-tfnY8W-14" value="ECHIPAMENTE" style="rounded=0;whiteSpace=wrap;html=1;" vertex="1" parent="1">
          <mxGeometry x="70" y="240" width="120" height="60" as="geometry" />
        </mxCell>
        <mxCell id="kJ0Sv4Drti37b-tfnY8W-16" value="" style="edgeStyle=entityRelationEdgeStyle;fontSize=12;html=1;endArrow=ERoneToMany;rounded=0;entryX=0.5;entryY=0;entryDx=0;entryDy=0;exitX=0.5;exitY=1;exitDx=0;exitDy=0;" edge="1" parent="1" source="UKkEUNWyltZnGkTkc1AV-1" target="kJ0Sv4Drti37b-tfnY8W-14">
          <mxGeometry width="100" height="100" relative="1" as="geometry">
            <mxPoint x="100" y="260" as="sourcePoint" />
            <mxPoint x="200" y="160" as="targetPoint" />
          </mxGeometry>
        </mxCell>
        <mxCell id="kJ0Sv4Drti37b-tfnY8W-19" value="" style="edgeStyle=entityRelationEdgeStyle;fontSize=12;html=1;endArrow=ERoneToMany;rounded=0;entryX=0;entryY=0.5;entryDx=0;entryDy=0;exitX=1;exitY=0.5;exitDx=0;exitDy=0;" edge="1" parent="1" source="kJ0Sv4Drti37b-tfnY8W-6" target="UKkEUNWyltZnGkTkc1AV-2">
          <mxGeometry width="100" height="100" relative="1" as="geometry">
            <mxPoint x="215" y="270" as="sourcePoint" />
            <mxPoint x="440.0000000000002" y="110" as="targetPoint" />
          </mxGeometry>
        </mxCell>
        <mxCell id="kJ0Sv4Drti37b-tfnY8W-20" value="ASISTENȚI MEDICAL" style="rounded=0;whiteSpace=wrap;html=1;" vertex="1" parent="1">
          <mxGeometry x="470" width="120" height="60" as="geometry" />
        </mxCell>
        <mxCell id="kJ0Sv4Drti37b-tfnY8W-22" value="" style="edgeStyle=entityRelationEdgeStyle;fontSize=12;html=1;endArrow=ERoneToMany;rounded=0;entryX=0;entryY=0.25;entryDx=0;entryDy=0;exitX=1;exitY=0.5;exitDx=0;exitDy=0;" edge="1" parent="1" source="kJ0Sv4Drti37b-tfnY8W-6" target="kJ0Sv4Drti37b-tfnY8W-20">
          <mxGeometry width="100" height="100" relative="1" as="geometry">
            <mxPoint x="335" y="110" as="sourcePoint" />
            <mxPoint x="450.0000000000002" y="120" as="targetPoint" />
          </mxGeometry>
        </mxCell>
      </root>
    </mxGraphModel>
  </diagram>
</mxfile>
